<svg width="69" height="69" viewBox="0 0 69 69" fill="none" xmlns="http://www.w3.org/2000/svg"><path d="M11.967 19.372v3.987l-7.12 1.993C3.425 25.922 2 27.346 2 29.054v1.424h15.663" stroke="#1F2327" stroke-width="3" stroke-miterlimit="10" stroke-linejoin="round"/><path d="M20.511 19.372v3.987l7.12 1.993c1.424.57 2.848 1.994 2.848 3.702v1.424H14.815" stroke="#1F2327" stroke-width="3" stroke-miterlimit="10" stroke-linejoin="round"/><path d="M16.24 20.796c4.718 0 8.543-4.208 8.543-9.398 0-5.19-3.825-9.398-8.544-9.398-4.718 0-8.543 4.208-8.543 9.398 0 5.19 3.825 9.398 8.543 9.398z" stroke="#1F2327" stroke-width="3" stroke-miterlimit="10" stroke-linejoin="round"/><path d="M24.783 9.69c-1.424 1.423-5.696 1.423-7.12-1.425-2.848 2.848-7.404 2.848-9.683 1.14m41.009 9.967v3.987l-7.12 1.993c-1.424.57-2.847 1.994-2.847 3.702v1.424h15.663" stroke="#1F2327" stroke-width="3" stroke-miterlimit="10" stroke-linejoin="round"/><path d="M57.533 19.372v3.987l7.12 1.993c1.423.57 2.847 1.994 2.847 3.702v1.424H51.837" stroke="#1F2327" stroke-width="3" stroke-miterlimit="10" stroke-linejoin="round"/><path d="M53.26 20.796c4.72 0 8.544-4.208 8.544-9.398C61.804 6.208 57.98 2 53.261 2c-4.719 0-8.544 4.208-8.544 9.398 0 5.19 3.825 9.398 8.544 9.398z" stroke="#1F2327" stroke-width="3" stroke-miterlimit="10" stroke-linejoin="round"/><path d="M61.804 9.69c-1.424 1.423-5.696 1.423-7.12-1.425-2.847 2.848-7.404 2.848-9.682 1.14M30.478 56.393v3.987l-7.12 1.994c-1.423.57-2.847 1.993-2.847 3.702V67.5h15.663" stroke="#1F2327" stroke-width="3" stroke-miterlimit="10" stroke-linejoin="round"/><path d="M39.022 56.393v3.987l7.12 1.994c1.423.57 2.847 1.993 2.847 3.702V67.5H33.326" stroke="#1F2327" stroke-width="3" stroke-miterlimit="10" stroke-linejoin="round"/><path d="M34.75 57.817c4.718 0 8.544-4.207 8.544-9.397s-3.825-9.398-8.544-9.398c-4.718 0-8.544 4.207-8.544 9.398 0 5.19 3.826 9.397 8.544 9.397z" stroke="#1F2327" stroke-width="3" stroke-miterlimit="10" stroke-linejoin="round"/><path d="M43.293 46.71c-1.423 1.425-5.41 1.425-7.12-1.423-2.847 2.848-7.404 2.848-9.682 1.139" stroke="#1F2327" stroke-width="3" stroke-miterlimit="10" stroke-linejoin="round"/><path d="M11.967 36.174l7.12 7.12" stroke="url(#paint0_linear)" stroke-width="5" stroke-linecap="round"/><path d="M57.533 36.174l-7.12 7.12" stroke="url(#paint1_linear)" stroke-width="5" stroke-linecap="round"/><defs><linearGradient id="paint0_linear" x1="15.527" y1="36.174" x2="15.527" y2="43.294" gradientUnits="userSpaceOnUse"><stop stop-color="#FCBE26"/><stop offset=".333" stop-color="#B4ED3A"/><stop offset=".63" stop-color="#28EC8D"/><stop offset="1" stop-color="#09E1FF"/></linearGradient><linearGradient id="paint1_linear" x1="53.973" y1="36.174" x2="53.973" y2="43.294" gradientUnits="userSpaceOnUse"><stop stop-color="#FCBE26"/><stop offset=".333" stop-color="#B4ED3A"/><stop offset=".63" stop-color="#28EC8D"/><stop offset="1" stop-color="#09E1FF"/></linearGradient></defs></svg>