<svg width="69" height="69" viewBox="0 0 69 69" fill="none" xmlns="http://www.w3.org/2000/svg"><path d="M67.5 2H2v45.565h65.5V2z" stroke="#1F2327" stroke-width="3" stroke-miterlimit="10" stroke-linejoin="round"/><path d="M33.326 47.565V67.5m-19.934 0l19.934-19.935L53.261 67.5M2 13.391h65.5" stroke="#1F2327" stroke-width="3" stroke-miterlimit="10" stroke-linecap="round" stroke-linejoin="round"/><path d="M16.24 32.25a4.62 4.62 0 110-9.24 4.62 4.62 0 010 9.24z" stroke="url(#paint0_linear)" stroke-width="5"/><path d="M34.038 25.13a1.06 1.06 0 110-2.12 1.06 1.06 0 010 2.12z" stroke="url(#paint1_linear)" stroke-width="5"/><path d="M46.853 25.13a1.06 1.06 0 110-2.12 1.06 1.06 0 010 2.12z" stroke="url(#paint2_linear)" stroke-width="5"/><defs><linearGradient id="paint0_linear" x1="16.239" y1="20.511" x2="16.239" y2="34.75" gradientUnits="userSpaceOnUse"><stop stop-color="#FCBE26"/><stop offset=".333" stop-color="#B4ED3A"/><stop offset=".63" stop-color="#28EC8D"/><stop offset="1" stop-color="#09E1FF"/></linearGradient><linearGradient id="paint1_linear" x1="34.038" y1="20.511" x2="34.038" y2="27.63" gradientUnits="userSpaceOnUse"><stop stop-color="#FCBE26"/><stop offset=".333" stop-color="#B4ED3A"/><stop offset=".63" stop-color="#28EC8D"/><stop offset="1" stop-color="#09E1FF"/></linearGradient><linearGradient id="paint2_linear" x1="46.853" y1="20.511" x2="46.853" y2="27.63" gradientUnits="userSpaceOnUse"><stop stop-color="#FCBE26"/><stop offset=".333" stop-color="#B4ED3A"/><stop offset=".63" stop-color="#28EC8D"/><stop offset="1" stop-color="#09E1FF"/></linearGradient></defs></svg>