<svg xmlns="http://www.w3.org/2000/svg"><defs><linearGradient id="paint0_linear" x1="15.618" y1="7.13" x2="15.618" y2="25.729" gradientUnits="userSpaceOnUse"><stop stop-color="#FCBE26"/><stop offset=".333" stop-color="#B4ED3A"/><stop offset=".63" stop-color="#28EC8D"/><stop offset="1" stop-color="#09E1FF"/></linearGradient><linearGradient id="paint1_linear" x1="15.738" y1=".692" x2="15.738" y2="32.406" gradientUnits="userSpaceOnUse"><stop stop-color="#FCBE26"/><stop offset=".333" stop-color="#B4ED3A"/><stop offset=".63" stop-color="#28EC8D"/><stop offset="1" stop-color="#09E1FF"/></linearGradient><linearGradient id="paint0_linear" x1="18" y1="8" x2="18" y2="9" gradientUnits="userSpaceOnUse"><stop stop-color="#FCBE26"/><stop offset=".333" stop-color="#B4ED3A"/><stop offset=".63" stop-color="#28EC8D"/><stop offset="1" stop-color="#09E1FF"/></linearGradient><linearGradient id="paint0_linear" x1="16.86" y1="9.58" x2="16.86" y2="23.992" gradientUnits="userSpaceOnUse"><stop stop-color="#FCBE26"/><stop offset=".333" stop-color="#B4ED3A"/><stop offset=".63" stop-color="#28EC8D"/><stop offset="1" stop-color="#09E1FF"/></linearGradient><linearGradient id="paint1_linear" x1="16.142" y1=".692" x2="16.142" y2="32.641" gradientUnits="userSpaceOnUse"><stop stop-color="#FCBE26"/><stop offset=".333" stop-color="#B4ED3A"/><stop offset=".63" stop-color="#28EC8D"/><stop offset="1" stop-color="#09E1FF"/></linearGradient></defs><symbol id="icon_back" viewBox="0 0 26 16"><path d="M.293 7.293a1 1 0 000 1.414l6.364 6.364a1 1 0 001.414-1.414L2.414 8l5.657-5.657A1 1 0 006.657.93L.293 7.293zM26 7H1v2h25V7z"/></symbol><symbol id="icon_cross" viewBox="0 0 29 29"><path d="M2 2l25 25m0-25L2 27" stroke-width="3" stroke-linecap="round"/></symbol><symbol id="icon_fb" viewBox="0 0 32 33"><path d="M16.93 13.33h2.861l-.238 3.1H16.93v9.3h-3.815v-9.3h-1.908v-3.1h1.908v-2.146c0-1.431.238-2.385.954-3.1.715-.716 1.669-.954 3.338-.954h2.623v3.1h-2.623c-.239 0-.239.238-.239.477 0 .238-.238.238-.238.477v2.146z"/><path d="M15.738 32.406C7.154 32.406 0 25.253 0 16.43S7.154.692 15.738.692c8.823 0 15.738 7.153 15.738 15.738 0 8.584-6.915 15.976-15.738 15.976zm0-29.33A13.331 13.331 0 002.385 16.43a13.331 13.331 0 0013.353 13.353A13.331 13.331 0 0029.09 16.43 13.331 13.331 0 0015.738 3.076z"/></symbol><symbol id="icon_next" viewBox="0 0 37 16"><path d="M36.707 8.707a1 1 0 000-1.414L30.343.929a1 1 0 10-1.414 1.414L34.586 8l-5.657 5.657a1 1 0 001.414 1.414l6.364-6.364zM0 9h36V7H0v2z"/></symbol><symbol id="icon_tw" viewBox="0 0 32 33"><path d="M23.586 11.982c.72 0 1.441-.24 2.162-.48-.48.48-1.201 1.2-1.922 1.68v.481c0 .961-.24 1.922-.48 2.883-.24.96-.721 1.922-1.202 2.882-.48.961-1.2 1.682-2.161 2.403-.721.72-1.682 1.2-2.883 1.681-1.201.24-2.402.48-3.603.48-1.922 0-3.844-.48-5.525-1.681h.96c1.682 0 3.123-.48 4.565-1.441-.721 0-1.442-.24-2.162-.72-.721-.481-1.201-.962-1.442-1.682h.721c.24 0 .72 0 .96-.24-.96 0-1.44-.481-2.161-1.202-.48-.72-.72-1.441-.72-2.402.48.24.96.48 1.68.48-.48-.24-.96-.72-1.2-1.2-.48-.721-.48-1.202-.48-1.922s.24-1.201.48-1.922c.96 1.201 1.921 1.922 3.363 2.642 1.441.721 2.642.961 4.083 1.201v-.72c0-.961.24-1.922.961-2.643.72-.72 1.682-.96 2.643-.96.96 0 1.921.48 2.642 1.2.72-.24 1.682-.48 2.402-.96-.24.96-.96 1.681-1.681 2.162z"/><path d="M16.14 32.64C7.491 32.64.284 25.435.284 16.547.285 7.898 7.492.692 16.14.692c8.888 0 15.855 7.206 15.855 15.854.24 8.888-6.967 16.095-15.855 16.095zm0-29.546A13.43 13.43 0 002.686 16.546 13.43 13.43 0 0016.14 29.998a13.43 13.43 0 0013.452-13.452C29.831 9.1 23.586 3.094 16.14 3.094z"/></symbol></svg>