<svg width="32" height="33" viewBox="0 0 32 33" fill="none" xmlns="http://www.w3.org/2000/svg">
<path d="M16.9299 13.3297H19.7913L19.5529 16.4296H16.9299V25.7292H13.1147V16.4296H11.207V13.3297H13.1147V11.1836C13.1147 9.75287 13.3531 8.79906 14.0685 8.0837C14.7838 7.36834 15.7376 7.12988 17.4068 7.12988H20.0298V10.2298H18.1222C17.8837 10.2298 17.6453 10.2298 17.4068 10.2298C17.1684 10.2298 17.1684 10.4682 17.1684 10.7067C17.1684 10.9451 16.9299 10.9451 16.9299 11.1836C16.9299 11.422 16.9299 11.422 16.9299 11.6605V13.3297Z" fill="url(#paint0_linear)"/>
<path d="M15.7379 32.4062C7.1536 32.4062 0 25.2526 0 16.4298C0 7.60704 7.1536 0.691895 15.7379 0.691895C24.5607 0.691895 31.4758 7.84549 31.4758 16.4298C31.4758 25.0141 24.5607 32.4062 15.7379 32.4062ZM15.7379 3.07643C8.34586 3.07643 2.38453 9.03776 2.38453 16.4298C2.38453 23.8219 8.34586 29.7832 15.7379 29.7832C23.13 29.7832 29.0913 23.8219 29.0913 16.4298C29.0913 9.03776 23.13 3.07643 15.7379 3.07643Z" fill="url(#paint1_linear)"/>
<defs>
<linearGradient id="paint0_linear" x1="15.6184" y1="7.12988" x2="15.6184" y2="25.7292" gradientUnits="userSpaceOnUse">
<stop stop-color="#FCBE26"/>
<stop offset="0.333333" stop-color="#B4ED3A"/>
<stop offset="0.630208" stop-color="#28EC8D"/>
<stop offset="1" stop-color="#09E1FF"/>
</linearGradient>
<linearGradient id="paint1_linear" x1="15.7379" y1="0.691895" x2="15.7379" y2="32.4062" gradientUnits="userSpaceOnUse">
<stop stop-color="#FCBE26"/>
<stop offset="0.333333" stop-color="#B4ED3A"/>
<stop offset="0.630208" stop-color="#28EC8D"/>
<stop offset="1" stop-color="#09E1FF"/>
</linearGradient>
</defs>
</svg>
