<svg width="32" height="33" viewBox="0 0 32 33" fill="none" xmlns="http://www.w3.org/2000/svg"><path d="M16.93 13.33h2.861l-.238 3.1H16.93v9.3h-3.815v-9.3h-1.908v-3.1h1.908v-2.146c0-1.431.238-2.385.954-3.1.715-.716 1.669-.954 3.338-.954h2.623v3.1h-2.623c-.239 0-.239.238-.239.477 0 .238-.238.238-.238.477v2.146z" fill="url(#paint0_linear)"/><path d="M15.738 32.406C7.154 32.406 0 25.253 0 16.43S7.154.692 15.738.692c8.823 0 15.738 7.153 15.738 15.738 0 8.584-6.915 15.976-15.738 15.976zm0-29.33A13.331 13.331 0 002.385 16.43a13.331 13.331 0 0013.353 13.353A13.331 13.331 0 0029.09 16.43 13.331 13.331 0 0015.738 3.076z" fill="url(#paint1_linear)"/><defs><linearGradient id="paint0_linear" x1="15.618" y1="7.13" x2="15.618" y2="25.729" gradientUnits="userSpaceOnUse"><stop stop-color="#FCBE26"/><stop offset=".333" stop-color="#B4ED3A"/><stop offset=".63" stop-color="#28EC8D"/><stop offset="1" stop-color="#09E1FF"/></linearGradient><linearGradient id="paint1_linear" x1="15.738" y1=".692" x2="15.738" y2="32.406" gradientUnits="userSpaceOnUse"><stop stop-color="#FCBE26"/><stop offset=".333" stop-color="#B4ED3A"/><stop offset=".63" stop-color="#28EC8D"/><stop offset="1" stop-color="#09E1FF"/></linearGradient></defs></svg>