<svg width="68" height="69" viewBox="0 0 68 69" fill="none" xmlns="http://www.w3.org/2000/svg"><path d="M47.85 61.804H6.272C3.993 61.804 2 59.811 2 57.533V6.272C2 3.993 3.993 2 6.272 2h37.022c2.278 0 4.271 1.993 4.271 4.272v38.445" stroke="#1F2327" stroke-width="3" stroke-miterlimit="10" stroke-linejoin="round"/><path d="M43.009 50.413H7.696V7.696H41.87V40.16M66.076 67.5l-8.543-11.39v-13.1c0-4.842-4.557-9.398-9.968-13.955" stroke="#1F2327" stroke-width="3" stroke-miterlimit="10" stroke-linecap="round" stroke-linejoin="round"/><path d="M50.413 47.565l-6.55-6.55c-1.14-1.139-3.133-1.139-4.272 0-1.139 1.14-.854 3.702 0 4.272l6.55 9.398v2.848c0 2.847 5.696 9.967 5.696 9.967" stroke="#1F2327" stroke-width="3" stroke-miterlimit="10" stroke-linecap="round" stroke-linejoin="round"/><path d="M17.663 56.109h11.391" stroke="#1F2327" stroke-width="3" stroke-miterlimit="10" stroke-linejoin="round"/><path d="M13.391 54.685c-.854 0-1.424.57-1.424 1.424s.57 1.424 1.424 1.424 1.424-.57 1.424-1.424c0-.855-.57-1.424-1.424-1.424zm19.935 0c-.854 0-1.424.57-1.424 1.424s.57 1.424 1.424 1.424c.855 0 1.424-.57 1.424-1.424 0-.855-.57-1.424-1.424-1.424z" fill="#1F2327"/><mask id="a" fill="#fff"><path fill-rule="evenodd" clip-rule="evenodd" d="M14.815 17.74h11.392v-3H14.815v3zm19.935 5.695H14.815v-3H34.75v3zM14.815 29.13H34.75v-3H14.815v3zm19.935 5.695H14.815v-3H34.75v3zm0 5.696H14.815v-3H34.75v3z"/></mask><path d="M26.207 17.74v4h4v-4h-4zm-11.392 0h-4v4h4v-4zm11.392-3h4v-4h-4v4zm-11.392 0v-4h-4v4h4zm0 8.695h-4v4h4v-4zm19.935 0v4h4v-4h-4zm-19.935-3v-4h-4v4h4zm19.935 0h4v-4h-4v4zm0 8.696v4h4v-4h-4zm-19.935 0h-4v4h4v-4zm19.935-3h4v-4h-4v4zm-19.935 0v-4h-4v4h4zm0 8.695h-4v4h4v-4zm19.935 0v4h4v-4h-4zm-19.935-3v-4h-4v4h4zm19.935 0h4v-4h-4v4zm-19.935 8.696h-4v4h4v-4zm19.935 0v4h4v-4h-4zm-19.935-3v-4h-4v4h4zm19.935 0h4v-4h-4v4zm-8.543-23.783H14.815v8h11.392v-8zm-4 1v3h8v-3h-8zm-7.392 4h11.392v-8H14.815v8zm4-1v-3h-8v3h8zm-4 9.696H34.75v-8H14.815v8zm-4-7v3h8v-3h-8zm23.935-4H14.815v8H34.75v-8zm4 7v-3h-8v3h8zm-4 1.696H14.815v8H34.75v-8zm-4 1v3h8v-3h-8zm-15.935 4H34.75v-8H14.815v8zm4-1v-3h-8v3h8zm-4 9.695H34.75v-8H14.815v8zm-4-7v3h8v-3h-8zm23.935-4H14.815v8H34.75v-8zm4 7v-3h-8v3h8zm-23.935 9.696H34.75v-8H14.815v8zm-4-7v3h8v-3h-8zm23.935-4H14.815v8H34.75v-8zm4 7v-3h-8v3h8z" fill="url(#paint0_linear)" mask="url(#a)"/><defs><linearGradient id="paint0_linear" x1="24.783" y1="14.739" x2="24.783" y2="40.522" gradientUnits="userSpaceOnUse"><stop stop-color="#FCBE26"/><stop offset=".333" stop-color="#B4ED3A"/><stop offset=".63" stop-color="#28EC8D"/><stop offset="1" stop-color="#09E1FF"/></linearGradient></defs></svg>