<svg width="145" height="66" viewBox="0 0 145 66" fill="none" xmlns="http://www.w3.org/2000/svg"><path d="M90.528 40.458h-3.67V27.37l-6.573 6.547-6.573-6.547v13.088h-3.67V19.186l10.243 9.949 10.243-9.949v21.272zm12.002-21.246l9.508 21.246h-4.079l-5.429-12.679-5.403 12.679h-4.111l9.514-21.246zm-4.872-2.526v-2.73h9.744v2.73h-9.744zm16.701 23.772c-.236 0-.467 0-.703-.026v-3.574c.236 0 .441.026.678.026 3.638 0 6.605-2.839 6.573-6.355V19.915h3.696V30.53c0 5.479-4.579 9.929-10.244 9.929zm21.133-21.246L145 40.458h-4.08l-5.428-12.679-5.404 12.679h-4.111l9.515-21.246zM32.438 53.021c-11.011 0-19.931-8.925-19.931-19.929 0-11.01 8.926-19.928 19.93-19.928 11.011 0 19.931 8.925 19.931 19.928a19.81 19.81 0 01-1.413 7.36h13.07c.55-2.366.85-4.828.85-7.36C64.875 15.178 50.354.658 32.437.658 14.521.658 0 15.178 0 33.092c0 17.915 14.521 32.435 32.438 32.435 12.347 0 23.082-6.899 28.562-17.058l-13.35-2.513c-3.652 4.322-9.106 7.065-15.212 7.065z" fill="#FCB813"/><path d="M64.024 40.477s.186-.742.377-1.867C67.726 19.071 53.186 8.151 53.186 8.151s2.033 11.7-6.285 21.757C38.37 40.215 26.54 40.413 25.704 40.42l18.498.026 19.822.032z" fill="url(#paint0_linear)"/><path d="M47.656 45.956c-3.658 4.322-9.112 7.065-15.218 7.065-6.849 0-12.885-3.452-16.472-8.714v.006c3.46 6.163 24.221 22.147 43.397 6.445.186-.154.371-.3.55-.441.378-.608.748-1.221 1.087-1.848l-13.344-2.513z" fill="#F2A91D"/><defs><linearGradient id="paint0_linear" x1="54.315" y1="46.541" x2="36.744" y2="18.419" gradientUnits="userSpaceOnUse"><stop stop-color="#FFDA00"/><stop offset="1" stop-color="#FFC906"/></linearGradient></defs></svg>