<svg width="69" height="69" viewBox="0 0 69 69" fill="none" xmlns="http://www.w3.org/2000/svg">
<path d="M11.9674 19.3717V23.3587L4.84783 25.3521C3.42391 25.9217 2 27.3456 2 29.0543V30.4782H17.663" stroke="#1F2327" stroke-width="3" stroke-miterlimit="10" stroke-linejoin="round"/>
<path d="M20.5111 19.3717V23.3587L27.6306 25.3521C29.0546 25.9217 30.4785 27.3456 30.4785 29.0543V30.4782H14.8154" stroke="#1F2327" stroke-width="3" stroke-miterlimit="10" stroke-linejoin="round"/>
<path d="M16.2393 20.7957C20.9577 20.7957 24.7828 16.5881 24.7828 11.3978C24.7828 6.20755 20.9577 2 16.2393 2C11.5208 2 7.6958 6.20755 7.6958 11.3978C7.6958 16.5881 11.5208 20.7957 16.2393 20.7957Z" stroke="#1F2327" stroke-width="3" stroke-miterlimit="10" stroke-linejoin="round"/>
<path d="M24.7826 9.68905C23.3587 11.113 19.087 11.113 17.6631 8.26514C14.8153 11.113 10.2587 11.113 7.98047 9.40427" stroke="#1F2327" stroke-width="3" stroke-miterlimit="10" stroke-linejoin="round"/>
<path d="M48.9889 19.3717V23.3587L41.8693 25.3521C40.4454 25.9217 39.0215 27.3456 39.0215 29.0543V30.4782H54.6845" stroke="#1F2327" stroke-width="3" stroke-miterlimit="10" stroke-linejoin="round"/>
<path d="M57.5326 19.3717V23.3587L64.6521 25.3521C66.076 25.9217 67.5 27.3456 67.5 29.0543V30.4782H51.8369" stroke="#1F2327" stroke-width="3" stroke-miterlimit="10" stroke-linejoin="round"/>
<path d="M53.2608 20.7957C57.9792 20.7957 61.8042 16.5881 61.8042 11.3978C61.8042 6.20755 57.9792 2 53.2608 2C48.5423 2 44.7173 6.20755 44.7173 11.3978C44.7173 16.5881 48.5423 20.7957 53.2608 20.7957Z" stroke="#1F2327" stroke-width="3" stroke-miterlimit="10" stroke-linejoin="round"/>
<path d="M61.8041 9.68905C60.3802 11.113 56.1085 11.113 54.6846 8.26514C51.8367 11.113 47.2802 11.113 45.002 9.40427" stroke="#1F2327" stroke-width="3" stroke-miterlimit="10" stroke-linejoin="round"/>
<path d="M30.4781 56.3934V60.3804L23.3586 62.3739C21.9347 62.9434 20.5107 64.3673 20.5107 66.076V67.5H36.1738" stroke="#1F2327" stroke-width="3" stroke-miterlimit="10" stroke-linejoin="round"/>
<path d="M39.0218 56.3934V60.3804L46.1414 62.3739C47.5653 62.9434 48.9892 64.3673 48.9892 66.076V67.5H33.3262" stroke="#1F2327" stroke-width="3" stroke-miterlimit="10" stroke-linejoin="round"/>
<path d="M34.75 57.8174C39.4685 57.8174 43.2935 53.6098 43.2935 48.4196C43.2935 43.2293 39.4685 39.0217 34.75 39.0217C30.0316 39.0217 26.2065 43.2293 26.2065 48.4196C26.2065 53.6098 30.0316 57.8174 34.75 57.8174Z" stroke="#1F2327" stroke-width="3" stroke-miterlimit="10" stroke-linejoin="round"/>
<path d="M43.2934 46.7108C41.8695 48.1347 37.8825 48.1347 36.1738 45.2869C33.326 48.1347 28.7695 48.1347 26.4912 46.426" stroke="#1F2327" stroke-width="3" stroke-miterlimit="10" stroke-linejoin="round"/>
<path d="M11.9673 36.174L19.0869 43.2935" stroke="url(#paint0_linear)" stroke-width="5" stroke-linecap="round"/>
<path d="M57.5327 36.174L50.4131 43.2935" stroke="url(#paint1_linear)" stroke-width="5" stroke-linecap="round"/>
<defs>
<linearGradient id="paint0_linear" x1="15.5271" y1="36.174" x2="15.5271" y2="43.2935" gradientUnits="userSpaceOnUse">
<stop stop-color="#FCBE26"/>
<stop offset="0.333333" stop-color="#B4ED3A"/>
<stop offset="0.630208" stop-color="#28EC8D"/>
<stop offset="1" stop-color="#09E1FF"/>
</linearGradient>
<linearGradient id="paint1_linear" x1="53.9729" y1="36.174" x2="53.9729" y2="43.2935" gradientUnits="userSpaceOnUse">
<stop stop-color="#FCBE26"/>
<stop offset="0.333333" stop-color="#B4ED3A"/>
<stop offset="0.630208" stop-color="#28EC8D"/>
<stop offset="1" stop-color="#09E1FF"/>
</linearGradient>
</defs>
</svg>
