<svg width="68" height="69" viewBox="0 0 68 69" fill="none" xmlns="http://www.w3.org/2000/svg">
<path d="M47.85 61.8043H6.27174C3.99348 61.8043 2 59.8109 2 57.5326V6.27174C2 3.99348 3.99348 2 6.27174 2H43.2935C45.5717 2 47.5652 3.99348 47.5652 6.27174V44.7174" stroke="#1F2327" stroke-width="3" stroke-miterlimit="10" stroke-linejoin="round"/>
<path d="M43.0088 50.413H7.6958V7.69556H41.8697V40.1608" stroke="#1F2327" stroke-width="3" stroke-miterlimit="10" stroke-linecap="round" stroke-linejoin="round"/>
<path d="M66.0763 67.5001L57.5328 56.1088V43.0088C57.5328 38.1675 52.9763 33.611 47.5654 29.0544" stroke="#1F2327" stroke-width="3" stroke-miterlimit="10" stroke-linecap="round" stroke-linejoin="round"/>
<path d="M50.4129 47.5652L43.8629 41.0152C42.7238 39.8761 40.7303 39.8761 39.5912 41.0152C38.452 42.1544 38.7368 44.7174 39.5912 45.287L46.1412 54.6848C46.1412 54.6848 46.1412 54.6848 46.1412 57.5326C46.1412 60.3805 51.8368 67.5 51.8368 67.5" stroke="#1F2327" stroke-width="3" stroke-miterlimit="10" stroke-linecap="round" stroke-linejoin="round"/>
<path d="M17.6631 56.1086H29.0544" stroke="#1F2327" stroke-width="3" stroke-miterlimit="10" stroke-linejoin="round"/>
<path d="M13.3912 54.6848C12.5369 54.6848 11.9673 55.2544 11.9673 56.1087C11.9673 56.9631 12.5369 57.5326 13.3912 57.5326C14.2455 57.5326 14.8151 56.9631 14.8151 56.1087C14.8151 55.2544 14.2455 54.6848 13.3912 54.6848Z" fill="#1F2327"/>
<path d="M33.3263 54.6848C32.4719 54.6848 31.9023 55.2544 31.9023 56.1087C31.9023 56.9631 32.4719 57.5326 33.3263 57.5326C34.1806 57.5326 34.7502 56.9631 34.7502 56.1087C34.7502 55.2544 34.1806 54.6848 33.3263 54.6848Z" fill="#1F2327"/>
<mask id="path-8-inside-1" fill="white">
<path fill-rule="evenodd" clip-rule="evenodd" d="M14.8154 17.7393H26.2067V14.7393H14.8154V17.7393ZM34.7502 23.4349H14.8154V20.4349H34.7502V23.4349ZM14.8154 29.1306H34.7502V26.1306H14.8154V29.1306ZM34.7502 34.8262H14.8154V31.8262H34.7502V34.8262ZM34.7502 40.5219H14.8154V37.5219H34.7502V40.5219Z"/>
</mask>
<path d="M26.2067 17.7393V21.7393H30.2067V17.7393H26.2067ZM14.8154 17.7393H10.8154V21.7393H14.8154V17.7393ZM26.2067 14.7393H30.2067V10.7393H26.2067V14.7393ZM14.8154 14.7393V10.7393H10.8154V14.7393H14.8154ZM14.8154 23.4349H10.8154V27.4349H14.8154V23.4349ZM34.7502 23.4349V27.4349H38.7502V23.4349H34.7502ZM14.8154 20.4349V16.4349H10.8154V20.4349H14.8154ZM34.7502 20.4349H38.7502V16.4349H34.7502V20.4349ZM34.7502 29.1306V33.1306H38.7502V29.1306H34.7502ZM14.8154 29.1306H10.8154V33.1306H14.8154V29.1306ZM34.7502 26.1306H38.7502V22.1306H34.7502V26.1306ZM14.8154 26.1306V22.1306H10.8154V26.1306H14.8154ZM14.8154 34.8262H10.8154V38.8262H14.8154V34.8262ZM34.7502 34.8262V38.8262H38.7502V34.8262H34.7502ZM14.8154 31.8262V27.8262H10.8154V31.8262H14.8154ZM34.7502 31.8262H38.7502V27.8262H34.7502V31.8262ZM14.8154 40.5219H10.8154V44.5219H14.8154V40.5219ZM34.7502 40.5219V44.5219H38.7502V40.5219H34.7502ZM14.8154 37.5219V33.5219H10.8154V37.5219H14.8154ZM34.7502 37.5219H38.7502V33.5219H34.7502V37.5219ZM26.2067 13.7393H14.8154V21.7393H26.2067V13.7393ZM22.2067 14.7393V17.7393H30.2067V14.7393H22.2067ZM14.8154 18.7393H26.2067V10.7393H14.8154V18.7393ZM18.8154 17.7393V14.7393H10.8154V17.7393H18.8154ZM14.8154 27.4349H34.7502V19.4349H14.8154V27.4349ZM10.8154 20.4349V23.4349H18.8154V20.4349H10.8154ZM34.7502 16.4349H14.8154V24.4349H34.7502V16.4349ZM38.7502 23.4349V20.4349H30.7502V23.4349H38.7502ZM34.7502 25.1306H14.8154V33.1306H34.7502V25.1306ZM30.7502 26.1306V29.1306H38.7502V26.1306H30.7502ZM14.8154 30.1306H34.7502V22.1306H14.8154V30.1306ZM18.8154 29.1306V26.1306H10.8154V29.1306H18.8154ZM14.8154 38.8262H34.7502V30.8262H14.8154V38.8262ZM10.8154 31.8262V34.8262H18.8154V31.8262H10.8154ZM34.7502 27.8262H14.8154V35.8262H34.7502V27.8262ZM38.7502 34.8262V31.8262H30.7502V34.8262H38.7502ZM14.8154 44.5219H34.7502V36.5219H14.8154V44.5219ZM10.8154 37.5219V40.5219H18.8154V37.5219H10.8154ZM34.7502 33.5219H14.8154V41.5219H34.7502V33.5219ZM38.7502 40.5219V37.5219H30.7502V40.5219H38.7502Z" fill="url(#paint0_linear)" mask="url(#path-8-inside-1)"/>
<defs>
<linearGradient id="paint0_linear" x1="24.7828" y1="14.7393" x2="24.7828" y2="40.5219" gradientUnits="userSpaceOnUse">
<stop stop-color="#FCBE26"/>
<stop offset="0.333333" stop-color="#B4ED3A"/>
<stop offset="0.630208" stop-color="#28EC8D"/>
<stop offset="1" stop-color="#09E1FF"/>
</linearGradient>
</defs>
</svg>
