<svg width="69" height="69" viewBox="0 0 69 69" fill="none" xmlns="http://www.w3.org/2000/svg">
<path d="M67.5 2H2V47.5652H67.5V2Z" stroke="#1F2327" stroke-width="3" stroke-miterlimit="10" stroke-linejoin="round"/>
<path d="M33.3262 47.5652V67.5" stroke="#1F2327" stroke-width="3" stroke-miterlimit="10" stroke-linecap="round" stroke-linejoin="round"/>
<path d="M13.3916 67.5L33.3264 47.5652L53.2612 67.5" stroke="#1F2327" stroke-width="3" stroke-miterlimit="10" stroke-linecap="round" stroke-linejoin="round"/>
<path d="M2 13.3914H67.5" stroke="#1F2327" stroke-width="3" stroke-miterlimit="10" stroke-linecap="round" stroke-linejoin="round"/>
<path d="M16.2392 32.25C13.6879 32.25 11.6196 30.1817 11.6196 27.6304C11.6196 25.0791 13.6879 23.0109 16.2392 23.0109C18.7905 23.0109 20.8588 25.0791 20.8588 27.6304C20.8588 30.1817 18.7905 32.25 16.2392 32.25Z" stroke="url(#paint0_linear)" stroke-width="5"/>
<path d="M34.0383 25.1304C33.453 25.1304 32.9785 24.6559 32.9785 24.0706C32.9785 23.4853 33.453 23.0109 34.0383 23.0109C34.6236 23.0109 35.0981 23.4853 35.0981 24.0706C35.0981 24.6559 34.6236 25.1304 34.0383 25.1304Z" stroke="url(#paint1_linear)" stroke-width="5"/>
<path d="M46.8532 25.1304C46.2679 25.1304 45.7935 24.6559 45.7935 24.0706C45.7935 23.4853 46.2679 23.0109 46.8532 23.0109C47.4385 23.0109 47.913 23.4853 47.913 24.0706C47.913 24.6559 47.4385 25.1304 46.8532 25.1304Z" stroke="url(#paint2_linear)" stroke-width="5"/>
<defs>
<linearGradient id="paint0_linear" x1="16.2392" y1="20.5109" x2="16.2392" y2="34.75" gradientUnits="userSpaceOnUse">
<stop stop-color="#FCBE26"/>
<stop offset="0.333333" stop-color="#B4ED3A"/>
<stop offset="0.630208" stop-color="#28EC8D"/>
<stop offset="1" stop-color="#09E1FF"/>
</linearGradient>
<linearGradient id="paint1_linear" x1="34.0383" y1="20.5109" x2="34.0383" y2="27.6304" gradientUnits="userSpaceOnUse">
<stop stop-color="#FCBE26"/>
<stop offset="0.333333" stop-color="#B4ED3A"/>
<stop offset="0.630208" stop-color="#28EC8D"/>
<stop offset="1" stop-color="#09E1FF"/>
</linearGradient>
<linearGradient id="paint2_linear" x1="46.8532" y1="20.5109" x2="46.8532" y2="27.6304" gradientUnits="userSpaceOnUse">
<stop stop-color="#FCBE26"/>
<stop offset="0.333333" stop-color="#B4ED3A"/>
<stop offset="0.630208" stop-color="#28EC8D"/>
<stop offset="1" stop-color="#09E1FF"/>
</linearGradient>
</defs>
</svg>
