<svg width="145" height="66" viewBox="0 0 145 66" fill="none" xmlns="http://www.w3.org/2000/svg">
<path d="M90.5283 40.4578H86.8581V27.3702L80.2849 33.9172L73.7117 27.3702V40.4578H70.0415V19.1864L80.2849 29.1348L90.5283 19.1864V40.4578Z" fill="#FCB813"/>
<path d="M102.53 19.212L112.038 40.4578H107.959L102.53 27.7793L97.1271 40.4578H93.0156L102.53 19.212ZM97.6578 16.6865V13.9565H107.402V16.6865H97.6578Z" fill="#FCB813"/>
<path d="M114.359 40.4578C114.123 40.4578 113.892 40.4578 113.656 40.4322V36.8582C113.892 36.8582 114.097 36.8838 114.334 36.8838C117.972 36.8838 120.939 34.045 120.907 30.5286V19.9153H124.603V30.5286C124.603 36.0079 120.024 40.4578 114.359 40.4578Z" fill="#FCB813"/>
<path d="M135.492 19.212L145 40.4578H140.92L135.492 27.7794L130.088 40.4578H125.977L135.492 19.212Z" fill="#FCB813"/>
<path d="M32.4375 53.0211C21.4268 53.0211 12.5069 44.0957 12.5069 33.0924C12.5069 22.0827 21.4332 13.1637 32.4375 13.1637C43.4482 13.1637 52.368 22.0891 52.368 33.0924C52.368 35.6946 51.8629 38.1753 50.9549 40.4514H64.0245C64.5744 38.0858 64.875 35.6243 64.875 33.0924C64.875 15.1776 50.3539 0.657837 32.4375 0.657837C14.5211 0.657837 0 15.1776 0 33.0924C0 51.0072 14.5211 65.527 32.4375 65.527C44.7846 65.527 55.5203 58.6283 61.0001 48.4689L47.6491 45.9563C43.9981 50.2783 38.5439 53.0211 32.4375 53.0211Z" fill="#FCB813"/>
<path d="M64.0242 40.477C64.0242 40.477 64.2096 39.7353 64.4014 38.61C67.7264 19.0713 53.1861 8.15109 53.1861 8.15109C53.1861 8.15109 55.2195 19.8513 46.9007 29.9084C38.3709 40.2148 26.5417 40.413 25.7041 40.4194L44.2024 40.445L64.0242 40.477Z" fill="url(#paint0_linear)"/>
<path d="M47.6557 45.9563C43.9982 50.2783 38.544 53.0212 32.4376 53.0212C25.5895 53.0212 19.5534 49.5686 15.9663 44.3067V44.3131C19.4255 50.4765 40.1873 66.4604 59.3633 50.7578C59.5488 50.6044 59.7342 50.4573 59.9132 50.3167C60.2905 49.7093 60.6614 49.0955 61.0003 48.4689L47.6557 45.9563Z" fill="#F2A91D"/>
<defs>
<linearGradient id="paint0_linear" x1="54.3153" y1="46.5413" x2="36.7442" y2="18.4191" gradientUnits="userSpaceOnUse">
<stop stop-color="#FFDA00"/>
<stop offset="1" stop-color="#FFC906"/>
</linearGradient>
</defs>
</svg>
