<svg width="32" height="33" viewBox="0 0 32 33" fill="none" xmlns="http://www.w3.org/2000/svg">
<path d="M23.5857 11.9817C24.3063 11.9817 25.027 11.7415 25.7476 11.5013C25.2672 11.9817 24.5466 12.7024 23.8259 13.1828C23.8259 13.1828 23.8259 13.423 23.8259 13.6633C23.8259 14.6241 23.5857 15.585 23.3455 16.5458C23.1053 17.5067 22.6248 18.4676 22.1444 19.4284C21.664 20.3893 20.9433 21.1099 19.9825 21.8306C19.2618 22.5512 18.3009 23.0317 17.0999 23.5121C15.8988 23.7523 14.6977 23.9925 13.4966 23.9925C11.5749 23.9925 9.65319 23.5121 7.97168 22.311C8.2119 22.311 8.45211 22.311 8.93254 22.311C10.614 22.311 12.0553 21.8306 13.4966 20.8697C12.776 20.8697 12.0553 20.6295 11.3347 20.1491C10.614 19.6686 10.1336 19.1882 9.8934 18.4676C10.1336 18.4676 10.3738 18.4676 10.6141 18.4676C10.8543 18.4676 11.3347 18.4676 11.5749 18.2273C10.614 18.2273 10.1336 17.7469 9.41297 17.0263C8.93254 16.3056 8.69233 15.585 8.69233 14.6241C9.17276 14.8643 9.65319 15.1045 10.3738 15.1045C9.8934 14.8643 9.41297 14.3839 9.17276 13.9035C8.69233 13.1828 8.69233 12.7024 8.69233 11.9817C8.69233 11.2611 8.93254 10.7807 9.17276 10.06C10.1336 11.2611 11.0945 11.9817 12.5358 12.7024C13.9771 13.423 15.1781 13.6633 16.6194 13.9035C16.6194 13.6633 16.6194 13.423 16.6194 13.1828C16.6194 12.222 16.8597 11.2611 17.5803 10.5405C18.3009 9.8198 19.2618 9.57959 20.2227 9.57959C21.1835 9.57959 22.1444 10.06 22.865 10.7807C23.5857 10.5405 24.5466 10.3002 25.2672 9.81981C25.027 10.7807 24.3063 11.5013 23.5857 11.9817Z" fill="url(#paint0_linear)"/>
<path d="M16.1394 32.6406C7.49162 32.6406 0.285156 25.4341 0.285156 16.5461C0.285156 7.89836 7.49162 0.691895 16.1394 0.691895C25.0274 0.691895 31.9936 7.89836 31.9936 16.5461C32.2338 25.4341 25.0274 32.6406 16.1394 32.6406ZM16.1394 3.09405C8.6927 3.09405 2.68731 9.09944 2.68731 16.5461C2.68731 23.9928 8.6927 29.9982 16.1394 29.9982C23.5861 29.9982 29.5914 23.9928 29.5914 16.5461C29.8317 9.09944 23.5861 3.09405 16.1394 3.09405Z" fill="url(#paint1_linear)"/>
<defs>
<linearGradient id="paint0_linear" x1="16.8597" y1="9.57959" x2="16.8597" y2="23.9925" gradientUnits="userSpaceOnUse">
<stop stop-color="#FCBE26"/>
<stop offset="0.333333" stop-color="#B4ED3A"/>
<stop offset="0.630208" stop-color="#28EC8D"/>
<stop offset="1" stop-color="#09E1FF"/>
</linearGradient>
<linearGradient id="paint1_linear" x1="16.1423" y1="0.691895" x2="16.1423" y2="32.6406" gradientUnits="userSpaceOnUse">
<stop stop-color="#FCBE26"/>
<stop offset="0.333333" stop-color="#B4ED3A"/>
<stop offset="0.630208" stop-color="#28EC8D"/>
<stop offset="1" stop-color="#09E1FF"/>
</linearGradient>
</defs>
</svg>
