<?xml version="1.0" standalone="no"?>
<!DOCTYPE svg PUBLIC "-//W3C//DTD SVG 20010904//EN"
 "http://www.w3.org/TR/2001/REC-SVG-20010904/DTD/svg10.dtd">
<svg version="1.0" xmlns="http://www.w3.org/2000/svg"
 width="700.000000pt" height="700.000000pt" viewBox="0 0 700.000000 700.000000"
 preserveAspectRatio="xMidYMid meet">
<metadata>
Created by potrace 1.11, written by Peter Selinger 2001-2013
</metadata>
<g transform="translate(0.000000,700.000000) scale(0.100000,-0.100000)"
fill="#000000" stroke="none">
<path d="M3279 6996 c-2 -2 -42 -7 -89 -10 -47 -4 -98 -9 -115 -11 -16 -2 -50
-6 -75 -10 -46 -5 -134 -20 -180 -31 -14 -3 -38 -7 -55 -10 -62 -10 -293 -74
-390 -107 -235 -81 -423 -166 -660 -301 -84 -48 -303 -200 -410 -287 -686
-551 -1140 -1345 -1269 -2219 -26 -173 -31 -264 -31 -510 1 -227 5 -306 26
-455 22 -158 37 -239 74 -387 166 -662 522 -1259 1031 -1728 391 -360 896
-642 1399 -781 61 -17 118 -32 128 -34 10 -2 26 -6 35 -9 9 -3 28 -7 42 -10
14 -2 36 -7 50 -10 23 -5 55 -12 105 -21 19 -3 142 -21 210 -30 143 -19 482
-25 645 -11 148 13 242 23 270 31 8 2 37 6 64 10 27 3 52 8 56 10 3 2 24 6 46
9 23 4 55 11 72 16 18 5 32 7 32 5 0 -2 18 2 40 10 22 8 44 15 48 15 51 6 255
72 407 132 705 279 1306 792 1711 1460 52 86 70 124 61 129 -6 4 -124 28 -262
53 -137 26 -281 53 -320 61 -38 8 -131 26 -205 39 -74 14 -229 43 -345 65
-115 22 -228 42 -250 46 l-40 6 -130 -129 c-340 -337 -732 -534 -1210 -608
-115 -18 -370 -24 -505 -12 -574 51 -1119 351 -1482 813 -99 126 -87 109 -136
188 -91 144 -202 390 -238 527 -19 74 -44 179 -48 204 -19 122 -27 177 -31
216 -5 56 -6 324 -1 365 2 17 7 59 11 94 40 355 207 756 439 1051 142 181 328
351 527 481 86 56 329 184 329 173 0 -4 6 -2 13 4 37 30 312 110 467 136 207
34 463 36 668 5 98 -14 124 -19 144 -25 10 -3 29 -7 42 -10 97 -17 342 -106
465 -169 172 -87 368 -226 516 -368 141 -133 303 -340 384 -490 75 -137 71
-125 53 -166 -9 -20 -50 -92 -91 -161 -409 -688 -1052 -1181 -1834 -1404 -67
-19 -133 -37 -147 -40 -14 -3 -43 -10 -65 -15 -22 -5 -56 -12 -75 -15 -19 -3
-44 -7 -55 -10 -11 -2 -45 -7 -75 -12 -30 -4 -59 -8 -65 -9 -5 -1 -29 -3 -52
-3 -24 -1 -43 -5 -43 -9 0 -5 897 -9 1994 -11 l1994 -3 5 28 c31 167 48 266
53 308 3 28 7 55 9 62 25 79 25 741 0 833 -2 8 -6 35 -9 60 -8 71 -16 120 -32
188 -7 34 -16 77 -19 95 -17 100 -99 357 -167 527 -372 920 -1124 1644 -2060
1984 -125 45 -391 120 -462 131 -21 3 -41 7 -45 9 -7 4 -249 41 -336 51 -56 7
-550 16 -556 11z"/>
</g>
</svg>
